<mxfile host="app.diagrams.net" modified="2022-11-08T03:55:57.451Z" agent="5.0 (Windows NT 10.0; Win64; x64) AppleWebKit/537.36 (KHTML, like Gecko) Chrome/107.0.0.0 Safari/537.36" etag="xG8HJcGVsXeODxUOeu9Z" version="20.5.3" type="github">
  <diagram id="v2n2YXAaQgagnx72gRG8" name="Halaman-1">
    <mxGraphModel dx="1021" dy="612" grid="1" gridSize="10" guides="1" tooltips="1" connect="1" arrows="1" fold="1" page="1" pageScale="1" pageWidth="2336" pageHeight="1654" math="1" shadow="0">
      <root>
        <mxCell id="0" />
        <mxCell id="1" parent="0" />
        <mxCell id="a0GXZD7oJbDEpGSqutC4-2" value="" style="edgeStyle=orthogonalEdgeStyle;curved=1;rounded=0;orthogonalLoop=1;jettySize=auto;html=1;fontSize=9;" parent="1" source="OFDSob3iJ7-6jmKI22tb-2" target="OFDSob3iJ7-6jmKI22tb-29" edge="1">
          <mxGeometry relative="1" as="geometry" />
        </mxCell>
        <mxCell id="OFDSob3iJ7-6jmKI22tb-2" value="&lt;font face=&quot;Times New Roman&quot; color=&quot;#ffffff&quot;&gt;Mulai&lt;/font&gt;" style="strokeWidth=2;html=1;shape=mxgraph.flowchart.start_1;whiteSpace=wrap;fontFamily=Tahoma;fillColor=#00994D;strokeColor=#FFFFFF;" parent="1" vertex="1">
          <mxGeometry x="1082.6599999999999" y="80" width="100" height="60" as="geometry" />
        </mxCell>
        <mxCell id="a0GXZD7oJbDEpGSqutC4-6" value="" style="edgeStyle=orthogonalEdgeStyle;curved=1;rounded=0;orthogonalLoop=1;jettySize=auto;html=1;fontSize=9;" parent="1" source="OFDSob3iJ7-6jmKI22tb-29" target="Z-h5pSy1b9NhvBK70-rD-27" edge="1">
          <mxGeometry relative="1" as="geometry" />
        </mxCell>
        <mxCell id="a0GXZD7oJbDEpGSqutC4-10" style="edgeStyle=orthogonalEdgeStyle;curved=1;rounded=0;orthogonalLoop=1;jettySize=auto;html=1;exitX=0;exitY=0.5;exitDx=0;exitDy=0;fontSize=9;" parent="1" source="OFDSob3iJ7-6jmKI22tb-29" target="OFDSob3iJ7-6jmKI22tb-73" edge="1">
          <mxGeometry relative="1" as="geometry" />
        </mxCell>
        <mxCell id="a0GXZD7oJbDEpGSqutC4-13" style="edgeStyle=orthogonalEdgeStyle;curved=1;rounded=0;orthogonalLoop=1;jettySize=auto;html=1;exitX=0;exitY=0.5;exitDx=0;exitDy=0;entryX=0.5;entryY=0;entryDx=0;entryDy=0;fontSize=9;" parent="1" source="OFDSob3iJ7-6jmKI22tb-29" target="OFDSob3iJ7-6jmKI22tb-88" edge="1">
          <mxGeometry relative="1" as="geometry" />
        </mxCell>
        <mxCell id="a0GXZD7oJbDEpGSqutC4-14" style="edgeStyle=orthogonalEdgeStyle;curved=1;rounded=0;orthogonalLoop=1;jettySize=auto;html=1;exitX=1;exitY=0.5;exitDx=0;exitDy=0;entryX=0.5;entryY=0;entryDx=0;entryDy=0;fontSize=9;" parent="1" source="OFDSob3iJ7-6jmKI22tb-29" target="OFDSob3iJ7-6jmKI22tb-127" edge="1">
          <mxGeometry relative="1" as="geometry" />
        </mxCell>
        <mxCell id="a0GXZD7oJbDEpGSqutC4-15" style="edgeStyle=orthogonalEdgeStyle;curved=1;rounded=0;orthogonalLoop=1;jettySize=auto;html=1;exitX=1;exitY=0.5;exitDx=0;exitDy=0;fontSize=9;" parent="1" source="OFDSob3iJ7-6jmKI22tb-29" target="Z-h5pSy1b9NhvBK70-rD-28" edge="1">
          <mxGeometry relative="1" as="geometry" />
        </mxCell>
        <mxCell id="a0GXZD7oJbDEpGSqutC4-16" style="edgeStyle=orthogonalEdgeStyle;curved=1;rounded=0;orthogonalLoop=1;jettySize=auto;html=1;exitX=1;exitY=0.5;exitDx=0;exitDy=0;fontSize=9;" parent="1" source="OFDSob3iJ7-6jmKI22tb-29" target="OFDSob3iJ7-6jmKI22tb-146" edge="1">
          <mxGeometry relative="1" as="geometry" />
        </mxCell>
        <mxCell id="a0GXZD7oJbDEpGSqutC4-17" style="edgeStyle=orthogonalEdgeStyle;curved=1;rounded=0;orthogonalLoop=1;jettySize=auto;html=1;exitX=1;exitY=0.5;exitDx=0;exitDy=0;entryX=0.5;entryY=0;entryDx=0;entryDy=0;fontSize=9;" parent="1" source="OFDSob3iJ7-6jmKI22tb-29" target="OFDSob3iJ7-6jmKI22tb-180" edge="1">
          <mxGeometry relative="1" as="geometry" />
        </mxCell>
        <mxCell id="a0GXZD7oJbDEpGSqutC4-18" style="edgeStyle=orthogonalEdgeStyle;curved=1;rounded=0;orthogonalLoop=1;jettySize=auto;html=1;exitX=1;exitY=0.5;exitDx=0;exitDy=0;entryX=0.5;entryY=0;entryDx=0;entryDy=0;fontSize=9;" parent="1" source="OFDSob3iJ7-6jmKI22tb-29" target="OFDSob3iJ7-6jmKI22tb-181" edge="1">
          <mxGeometry relative="1" as="geometry" />
        </mxCell>
        <mxCell id="a0GXZD7oJbDEpGSqutC4-19" style="edgeStyle=orthogonalEdgeStyle;curved=1;rounded=0;orthogonalLoop=1;jettySize=auto;html=1;exitX=1;exitY=0.5;exitDx=0;exitDy=0;fontSize=9;" parent="1" source="OFDSob3iJ7-6jmKI22tb-29" target="OFDSob3iJ7-6jmKI22tb-182" edge="1">
          <mxGeometry relative="1" as="geometry" />
        </mxCell>
        <mxCell id="OFDSob3iJ7-6jmKI22tb-29" value="Dashboard" style="shape=process;whiteSpace=wrap;html=1;backgroundOutline=1;strokeColor=#FFFFFF;fontFamily=Times New Roman;fontSize=12;fontColor=#FFFFFF;fillColor=#00994D;" parent="1" vertex="1">
          <mxGeometry x="1082.6600000000003" y="170" width="100" height="60" as="geometry" />
        </mxCell>
        <mxCell id="OFDSob3iJ7-6jmKI22tb-186" style="edgeStyle=orthogonalEdgeStyle;curved=1;rounded=0;orthogonalLoop=1;jettySize=auto;html=1;fontFamily=Times New Roman;fontSize=11;fontColor=#000000;" parent="1" source="OFDSob3iJ7-6jmKI22tb-30" target="OFDSob3iJ7-6jmKI22tb-184" edge="1">
          <mxGeometry relative="1" as="geometry">
            <Array as="points">
              <mxPoint x="208.99999999999977" y="965" />
            </Array>
          </mxGeometry>
        </mxCell>
        <mxCell id="OFDSob3iJ7-6jmKI22tb-30" value="Thematic Data Page" style="shape=document;whiteSpace=wrap;html=1;boundedLbl=1;labelBackgroundColor=none;strokeColor=#FFFFFF;fontFamily=Times New Roman;fontSize=12;fontColor=#FFFFFF;fillColor=#00994D;" parent="1" vertex="1">
          <mxGeometry x="148.99999999999977" y="825" width="120" height="70" as="geometry" />
        </mxCell>
        <mxCell id="Z-h5pSy1b9NhvBK70-rD-48" style="edgeStyle=orthogonalEdgeStyle;curved=1;rounded=0;orthogonalLoop=1;jettySize=auto;html=1;entryX=1;entryY=0.5;entryDx=0;entryDy=0;fontSize=9;" parent="1" source="OFDSob3iJ7-6jmKI22tb-32" target="OFDSob3iJ7-6jmKI22tb-184" edge="1">
          <mxGeometry relative="1" as="geometry">
            <Array as="points">
              <mxPoint x="1289" y="965" />
            </Array>
          </mxGeometry>
        </mxCell>
        <mxCell id="OFDSob3iJ7-6jmKI22tb-32" value="Planning Design Page" style="shape=document;whiteSpace=wrap;html=1;boundedLbl=1;labelBackgroundColor=none;strokeColor=#FFFFFF;fontFamily=Times New Roman;fontSize=12;fontColor=#FFFFFF;fillColor=#00994D;" parent="1" vertex="1">
          <mxGeometry x="1236.67" y="820" width="120" height="70" as="geometry" />
        </mxCell>
        <mxCell id="OFDSob3iJ7-6jmKI22tb-201" style="edgeStyle=orthogonalEdgeStyle;curved=1;rounded=0;orthogonalLoop=1;jettySize=auto;html=1;entryX=1;entryY=0.5;entryDx=0;entryDy=0;fontFamily=Times New Roman;fontSize=11;fontColor=#000000;" parent="1" source="OFDSob3iJ7-6jmKI22tb-33" target="OFDSob3iJ7-6jmKI22tb-184" edge="1">
          <mxGeometry relative="1" as="geometry" />
        </mxCell>
        <mxCell id="OFDSob3iJ7-6jmKI22tb-33" value="Historical Trase Page" style="shape=document;whiteSpace=wrap;html=1;boundedLbl=1;labelBackgroundColor=none;strokeColor=#FFFFFF;fontFamily=Times New Roman;fontSize=12;fontColor=#FFFFFF;fillColor=#00994D;size=0.42857142857142855;" parent="1" vertex="1">
          <mxGeometry x="1679" y="875" width="120" height="70" as="geometry" />
        </mxCell>
        <mxCell id="Z-h5pSy1b9NhvBK70-rD-54" style="edgeStyle=orthogonalEdgeStyle;curved=1;rounded=0;orthogonalLoop=1;jettySize=auto;html=1;exitX=0;exitY=0.5;exitDx=0;exitDy=0;entryX=1;entryY=0.5;entryDx=0;entryDy=0;fontSize=9;" parent="1" source="OFDSob3iJ7-6jmKI22tb-34" target="OFDSob3iJ7-6jmKI22tb-184" edge="1">
          <mxGeometry relative="1" as="geometry" />
        </mxCell>
        <mxCell id="OFDSob3iJ7-6jmKI22tb-34" value="GeoBIM Page" style="shape=document;whiteSpace=wrap;html=1;boundedLbl=1;labelBackgroundColor=none;strokeColor=#FFFFFF;fontFamily=Times New Roman;fontSize=12;fontColor=#FFFFFF;fillColor=#00994D;size=0.42857142857142855;" parent="1" vertex="1">
          <mxGeometry x="2029" y="930" width="120" height="70" as="geometry" />
        </mxCell>
        <mxCell id="Z-h5pSy1b9NhvBK70-rD-25" style="edgeStyle=orthogonalEdgeStyle;curved=1;rounded=0;orthogonalLoop=1;jettySize=auto;html=1;exitX=0.55;exitY=0.95;exitDx=0;exitDy=0;exitPerimeter=0;entryX=0;entryY=0.5;entryDx=0;entryDy=0;fontSize=9;" parent="1" source="OFDSob3iJ7-6jmKI22tb-70" target="OFDSob3iJ7-6jmKI22tb-91" edge="1">
          <mxGeometry relative="1" as="geometry">
            <Array as="points">
              <mxPoint x="288.9999999999998" y="691" />
              <mxPoint x="288.9999999999998" y="790" />
            </Array>
          </mxGeometry>
        </mxCell>
        <mxCell id="Z-h5pSy1b9NhvBK70-rD-26" style="edgeStyle=orthogonalEdgeStyle;curved=1;rounded=0;orthogonalLoop=1;jettySize=auto;html=1;exitX=0.55;exitY=0.95;exitDx=0;exitDy=0;exitPerimeter=0;entryX=0;entryY=0.5;entryDx=0;entryDy=0;fontSize=9;" parent="1" source="OFDSob3iJ7-6jmKI22tb-70" target="OFDSob3iJ7-6jmKI22tb-32" edge="1">
          <mxGeometry relative="1" as="geometry">
            <Array as="points">
              <mxPoint x="288.9999999999998" y="691" />
              <mxPoint x="288.9999999999998" y="855" />
            </Array>
          </mxGeometry>
        </mxCell>
        <mxCell id="OFDSob3iJ7-6jmKI22tb-70" value="Webmap" style="ellipse;shape=cloud;whiteSpace=wrap;html=1;labelBackgroundColor=none;strokeColor=#FFFFFF;fontFamily=Times New Roman;fontSize=12;fontColor=#FFFFFF;fillColor=#00994D;" parent="1" vertex="1">
          <mxGeometry x="78.99999999999977" y="605" width="135" height="90" as="geometry" />
        </mxCell>
        <mxCell id="OFDSob3iJ7-6jmKI22tb-97" style="edgeStyle=orthogonalEdgeStyle;curved=1;rounded=0;orthogonalLoop=1;jettySize=auto;html=1;exitX=0.5;exitY=1;exitDx=0;exitDy=0;fontFamily=Times New Roman;fontSize=12;fontColor=#000000;" parent="1" source="OFDSob3iJ7-6jmKI22tb-73" edge="1">
          <mxGeometry relative="1" as="geometry">
            <mxPoint x="151.32999999999947" y="601" as="targetPoint" />
          </mxGeometry>
        </mxCell>
        <mxCell id="OFDSob3iJ7-6jmKI22tb-73" value="&lt;font face=&quot;Times New Roman&quot;&gt;Raster Foto &lt;br&gt;Udara &lt;br&gt;(.TIF/.ECW)&lt;/font&gt;" style="shape=parallelogram;perimeter=parallelogramPerimeter;whiteSpace=wrap;html=1;fixedSize=1;strokeColor=#FFFFFF;fontFamily=Tahoma;fontColor=#FFFFFF;fillColor=#00994D;" parent="1" vertex="1">
          <mxGeometry x="221.8299999999997" y="426" width="104" height="60" as="geometry" />
        </mxCell>
        <mxCell id="OFDSob3iJ7-6jmKI22tb-111" style="edgeStyle=orthogonalEdgeStyle;curved=1;rounded=0;orthogonalLoop=1;jettySize=auto;html=1;exitX=0.5;exitY=1;exitDx=0;exitDy=0;entryX=0.5;entryY=0;entryDx=0;entryDy=0;fontFamily=Times New Roman;fontSize=12;fontColor=#000000;" parent="1" source="OFDSob3iJ7-6jmKI22tb-74" target="OFDSob3iJ7-6jmKI22tb-91" edge="1">
          <mxGeometry relative="1" as="geometry" />
        </mxCell>
        <mxCell id="OFDSob3iJ7-6jmKI22tb-74" value="&lt;font face=&quot;Times New Roman&quot;&gt;Persentase&lt;br&gt;&amp;nbsp;FS&lt;/font&gt;" style="shape=parallelogram;perimeter=parallelogramPerimeter;whiteSpace=wrap;html=1;fixedSize=1;strokeColor=#FFFFFF;fontFamily=Tahoma;fontColor=#FFFFFF;fillColor=#00994D;" parent="1" vertex="1">
          <mxGeometry x="580.9999999999998" y="629" width="104" height="60" as="geometry" />
        </mxCell>
        <mxCell id="OFDSob3iJ7-6jmKI22tb-114" style="edgeStyle=orthogonalEdgeStyle;curved=1;rounded=0;orthogonalLoop=1;jettySize=auto;html=1;exitX=0.5;exitY=1;exitDx=0;exitDy=0;fontFamily=Times New Roman;fontSize=12;fontColor=#000000;" parent="1" source="OFDSob3iJ7-6jmKI22tb-75" target="OFDSob3iJ7-6jmKI22tb-91" edge="1">
          <mxGeometry relative="1" as="geometry" />
        </mxCell>
        <mxCell id="OFDSob3iJ7-6jmKI22tb-75" value="&lt;font face=&quot;Times New Roman&quot;&gt;Persentase BD&lt;/font&gt;" style="shape=parallelogram;perimeter=parallelogramPerimeter;whiteSpace=wrap;html=1;fixedSize=1;strokeColor=#FFFFFF;fontFamily=Tahoma;fontColor=#FFFFFF;fillColor=#00994D;" parent="1" vertex="1">
          <mxGeometry x="216.99999999999977" y="629" width="104" height="60" as="geometry" />
        </mxCell>
        <mxCell id="a0GXZD7oJbDEpGSqutC4-20" style="edgeStyle=orthogonalEdgeStyle;curved=1;rounded=0;orthogonalLoop=1;jettySize=auto;html=1;exitX=0.5;exitY=1;exitDx=0;exitDy=0;entryX=0.5;entryY=0;entryDx=0;entryDy=0;fontSize=9;" parent="1" source="OFDSob3iJ7-6jmKI22tb-76" target="OFDSob3iJ7-6jmKI22tb-91" edge="1">
          <mxGeometry relative="1" as="geometry" />
        </mxCell>
        <mxCell id="OFDSob3iJ7-6jmKI22tb-76" value="&lt;font face=&quot;Times New Roman&quot;&gt;Persentase&lt;br&gt;&amp;nbsp;AMDAL&lt;/font&gt;" style="shape=parallelogram;perimeter=parallelogramPerimeter;whiteSpace=wrap;html=1;fixedSize=1;strokeColor=#FFFFFF;fontFamily=Tahoma;fontColor=#FFFFFF;fillColor=#00994D;" parent="1" vertex="1">
          <mxGeometry x="460.9999999999998" y="629" width="104" height="60" as="geometry" />
        </mxCell>
        <mxCell id="OFDSob3iJ7-6jmKI22tb-113" style="edgeStyle=orthogonalEdgeStyle;curved=1;rounded=0;orthogonalLoop=1;jettySize=auto;html=1;exitX=0.5;exitY=1;exitDx=0;exitDy=0;entryX=0.5;entryY=0;entryDx=0;entryDy=0;fontFamily=Times New Roman;fontSize=12;fontColor=#000000;" parent="1" source="OFDSob3iJ7-6jmKI22tb-77" target="OFDSob3iJ7-6jmKI22tb-91" edge="1">
          <mxGeometry relative="1" as="geometry" />
        </mxCell>
        <mxCell id="OFDSob3iJ7-6jmKI22tb-77" value="&lt;font face=&quot;Times New Roman&quot;&gt;Persentase&lt;br&gt;&amp;nbsp;DPPT&lt;/font&gt;" style="shape=parallelogram;perimeter=parallelogramPerimeter;whiteSpace=wrap;html=1;fixedSize=1;strokeColor=#FFFFFF;fontFamily=Tahoma;fontColor=#FFFFFF;fillColor=#00994D;" parent="1" vertex="1">
          <mxGeometry x="336.9999999999998" y="629" width="104" height="60" as="geometry" />
        </mxCell>
        <mxCell id="OFDSob3iJ7-6jmKI22tb-100" style="edgeStyle=orthogonalEdgeStyle;curved=1;rounded=0;orthogonalLoop=1;jettySize=auto;html=1;exitX=0.5;exitY=1;exitDx=0;exitDy=0;fontFamily=Times New Roman;fontSize=12;fontColor=#000000;" parent="1" source="OFDSob3iJ7-6jmKI22tb-78" edge="1">
          <mxGeometry relative="1" as="geometry">
            <mxPoint x="273.8333333333335" y="625" as="targetPoint" />
          </mxGeometry>
        </mxCell>
        <mxCell id="OFDSob3iJ7-6jmKI22tb-101" style="edgeStyle=orthogonalEdgeStyle;curved=1;rounded=0;orthogonalLoop=1;jettySize=auto;html=1;exitX=0.5;exitY=1;exitDx=0;exitDy=0;fontFamily=Times New Roman;fontSize=12;fontColor=#000000;" parent="1" source="OFDSob3iJ7-6jmKI22tb-78" edge="1">
          <mxGeometry relative="1" as="geometry">
            <mxPoint x="393.8333333333335" y="625" as="targetPoint" />
          </mxGeometry>
        </mxCell>
        <mxCell id="OFDSob3iJ7-6jmKI22tb-102" style="edgeStyle=orthogonalEdgeStyle;curved=1;rounded=0;orthogonalLoop=1;jettySize=auto;html=1;exitX=0.5;exitY=1;exitDx=0;exitDy=0;fontFamily=Times New Roman;fontSize=12;fontColor=#000000;" parent="1" source="OFDSob3iJ7-6jmKI22tb-78" edge="1">
          <mxGeometry relative="1" as="geometry">
            <mxPoint x="517.8333333333339" y="625" as="targetPoint" />
          </mxGeometry>
        </mxCell>
        <mxCell id="OFDSob3iJ7-6jmKI22tb-103" style="edgeStyle=orthogonalEdgeStyle;curved=1;rounded=0;orthogonalLoop=1;jettySize=auto;html=1;exitX=0.5;exitY=1;exitDx=0;exitDy=0;fontFamily=Times New Roman;fontSize=12;fontColor=#000000;" parent="1" source="OFDSob3iJ7-6jmKI22tb-78" edge="1">
          <mxGeometry relative="1" as="geometry">
            <mxPoint x="637.8333333333339" y="625" as="targetPoint" />
          </mxGeometry>
        </mxCell>
        <mxCell id="OFDSob3iJ7-6jmKI22tb-78" value="&lt;font face=&quot;Times New Roman&quot;&gt;Create Diagram Lingkaran Persentase&lt;/font&gt;" style="rounded=1;whiteSpace=wrap;html=1;strokeColor=#FFFFFF;fontFamily=Tahoma;fontColor=#FFFFFF;fillColor=#00994D;" parent="1" vertex="1">
          <mxGeometry x="400.9899999999998" y="516" width="109.67" height="70" as="geometry" />
        </mxCell>
        <mxCell id="OFDSob3iJ7-6jmKI22tb-105" style="edgeStyle=orthogonalEdgeStyle;curved=1;rounded=0;orthogonalLoop=1;jettySize=auto;html=1;exitX=0.5;exitY=1;exitDx=0;exitDy=0;entryX=0.5;entryY=0;entryDx=0;entryDy=0;fontFamily=Times New Roman;fontSize=12;fontColor=#000000;" parent="1" source="OFDSob3iJ7-6jmKI22tb-79" target="OFDSob3iJ7-6jmKI22tb-83" edge="1">
          <mxGeometry relative="1" as="geometry" />
        </mxCell>
        <mxCell id="OFDSob3iJ7-6jmKI22tb-79" value="&lt;font face=&quot;Times New Roman&quot;&gt;Data Tabular Progress&lt;br&gt;&amp;nbsp;RTA (.csv)&lt;/font&gt;" style="shape=parallelogram;perimeter=parallelogramPerimeter;whiteSpace=wrap;html=1;fixedSize=1;strokeColor=#FFFFFF;fontFamily=Tahoma;fontColor=#FFFFFF;fillColor=#00994D;" parent="1" vertex="1">
          <mxGeometry x="736.6700000000001" y="416" width="104" height="60" as="geometry" />
        </mxCell>
        <mxCell id="OFDSob3iJ7-6jmKI22tb-109" style="edgeStyle=orthogonalEdgeStyle;curved=1;rounded=0;orthogonalLoop=1;jettySize=auto;html=1;exitX=0.5;exitY=1;exitDx=0;exitDy=0;fontFamily=Times New Roman;fontSize=12;fontColor=#000000;" parent="1" source="OFDSob3iJ7-6jmKI22tb-80" target="OFDSob3iJ7-6jmKI22tb-91" edge="1">
          <mxGeometry relative="1" as="geometry">
            <Array as="points">
              <mxPoint x="959" y="800" />
            </Array>
          </mxGeometry>
        </mxCell>
        <mxCell id="OFDSob3iJ7-6jmKI22tb-80" value="&lt;font face=&quot;Times New Roman&quot;&gt;Diagram Biaya &lt;br&gt;PPJT, Biaya Konstruksi,&lt;br&gt;&amp;nbsp;Jadwal PPJT&lt;/font&gt;" style="shape=parallelogram;perimeter=parallelogramPerimeter;whiteSpace=wrap;html=1;fixedSize=1;strokeColor=#FFFFFF;fontFamily=Tahoma;fontColor=#FFFFFF;fillColor=#00994D;" parent="1" vertex="1">
          <mxGeometry x="889" y="629" width="140" height="75" as="geometry" />
        </mxCell>
        <mxCell id="OFDSob3iJ7-6jmKI22tb-106" style="edgeStyle=orthogonalEdgeStyle;curved=1;rounded=0;orthogonalLoop=1;jettySize=auto;html=1;exitX=0.5;exitY=1;exitDx=0;exitDy=0;entryX=0.5;entryY=0;entryDx=0;entryDy=0;fontFamily=Times New Roman;fontSize=12;fontColor=#000000;" parent="1" source="OFDSob3iJ7-6jmKI22tb-83" edge="1">
          <mxGeometry relative="1" as="geometry">
            <mxPoint x="788.6599999999999" y="625" as="targetPoint" />
          </mxGeometry>
        </mxCell>
        <mxCell id="OFDSob3iJ7-6jmKI22tb-83" value="&lt;font face=&quot;Times New Roman&quot;&gt;Create Diagram Batang Vertikal untuk menampilkan progress&lt;/font&gt;" style="rounded=1;whiteSpace=wrap;html=1;strokeColor=#FFFFFF;fontFamily=Tahoma;fontColor=#FFFFFF;fillColor=#00994D;" parent="1" vertex="1">
          <mxGeometry x="733.8299999999999" y="516" width="109.67" height="70" as="geometry" />
        </mxCell>
        <mxCell id="OFDSob3iJ7-6jmKI22tb-108" style="edgeStyle=orthogonalEdgeStyle;curved=1;rounded=0;orthogonalLoop=1;jettySize=auto;html=1;exitX=0.5;exitY=1;exitDx=0;exitDy=0;entryX=0.59;entryY=0.022;entryDx=0;entryDy=0;entryPerimeter=0;fontFamily=Times New Roman;fontSize=12;fontColor=#000000;" parent="1" source="OFDSob3iJ7-6jmKI22tb-84" edge="1">
          <mxGeometry relative="1" as="geometry">
            <mxPoint x="976.4299999999994" y="626.6500000000001" as="targetPoint" />
          </mxGeometry>
        </mxCell>
        <mxCell id="OFDSob3iJ7-6jmKI22tb-84" value="&lt;font face=&quot;Times New Roman&quot;&gt;Pembuatan Diagram tiap Data.&lt;/font&gt;" style="rounded=1;whiteSpace=wrap;html=1;strokeColor=#FFFFFF;fontFamily=Tahoma;fontColor=#FFFFFF;fillColor=#00994D;" parent="1" vertex="1">
          <mxGeometry x="921" y="516" width="109.67" height="70" as="geometry" />
        </mxCell>
        <mxCell id="OFDSob3iJ7-6jmKI22tb-99" style="edgeStyle=orthogonalEdgeStyle;curved=1;rounded=0;orthogonalLoop=1;jettySize=auto;html=1;exitX=0.5;exitY=1;exitDx=0;exitDy=0;entryX=0.5;entryY=0;entryDx=0;entryDy=0;fontFamily=Times New Roman;fontSize=12;fontColor=#000000;" parent="1" source="OFDSob3iJ7-6jmKI22tb-85" target="OFDSob3iJ7-6jmKI22tb-78" edge="1">
          <mxGeometry relative="1" as="geometry" />
        </mxCell>
        <mxCell id="OFDSob3iJ7-6jmKI22tb-85" value="&lt;font face=&quot;Times New Roman&quot;&gt;Data Attribut&lt;br&gt;&amp;nbsp;Rekap &lt;br&gt;Progress&lt;/font&gt;" style="shape=parallelogram;perimeter=parallelogramPerimeter;whiteSpace=wrap;html=1;fixedSize=1;strokeColor=#FFFFFF;fontFamily=Tahoma;fontColor=#FFFFFF;fillColor=#00994D;" parent="1" vertex="1">
          <mxGeometry x="403.8299999999999" y="416" width="104" height="60" as="geometry" />
        </mxCell>
        <mxCell id="OFDSob3iJ7-6jmKI22tb-110" style="edgeStyle=orthogonalEdgeStyle;curved=1;rounded=0;orthogonalLoop=1;jettySize=auto;html=1;exitX=0.5;exitY=1;exitDx=0;exitDy=0;fontFamily=Times New Roman;fontSize=12;fontColor=#000000;" parent="1" source="OFDSob3iJ7-6jmKI22tb-87" target="OFDSob3iJ7-6jmKI22tb-91" edge="1">
          <mxGeometry relative="1" as="geometry" />
        </mxCell>
        <mxCell id="OFDSob3iJ7-6jmKI22tb-87" value="&lt;font face=&quot;Times New Roman&quot;&gt;Diagram &lt;br&gt;Batang Tiap &lt;br&gt;Seksi&lt;/font&gt;" style="shape=parallelogram;perimeter=parallelogramPerimeter;whiteSpace=wrap;html=1;fixedSize=1;strokeColor=#FFFFFF;fontFamily=Tahoma;fontColor=#FFFFFF;fillColor=#00994D;" parent="1" vertex="1">
          <mxGeometry x="731.8299999999999" y="629" width="104" height="60" as="geometry" />
        </mxCell>
        <mxCell id="OFDSob3iJ7-6jmKI22tb-107" style="edgeStyle=orthogonalEdgeStyle;curved=1;rounded=0;orthogonalLoop=1;jettySize=auto;html=1;exitX=0.5;exitY=1;exitDx=0;exitDy=0;entryX=0.5;entryY=0;entryDx=0;entryDy=0;fontFamily=Times New Roman;fontSize=12;fontColor=#000000;" parent="1" source="OFDSob3iJ7-6jmKI22tb-88" target="OFDSob3iJ7-6jmKI22tb-84" edge="1">
          <mxGeometry relative="1" as="geometry" />
        </mxCell>
        <mxCell id="OFDSob3iJ7-6jmKI22tb-88" value="&lt;font face=&quot;Times New Roman&quot;&gt;Data Biaya dan Jadwal &lt;br&gt;di masing-&lt;br&gt;masing Ruas&lt;/font&gt;" style="shape=parallelogram;perimeter=parallelogramPerimeter;whiteSpace=wrap;html=1;fixedSize=1;strokeColor=#FFFFFF;fontFamily=Tahoma;fontColor=#FFFFFF;fillColor=#00994D;" parent="1" vertex="1">
          <mxGeometry x="923.8299999999999" y="416" width="104" height="60" as="geometry" />
        </mxCell>
        <mxCell id="OFDSob3iJ7-6jmKI22tb-199" style="edgeStyle=orthogonalEdgeStyle;curved=1;rounded=0;orthogonalLoop=1;jettySize=auto;html=1;fontFamily=Times New Roman;fontSize=11;fontColor=#000000;entryX=0;entryY=0.5;entryDx=0;entryDy=0;exitX=0.417;exitY=1;exitDx=0;exitDy=0;exitPerimeter=0;" parent="1" source="OFDSob3iJ7-6jmKI22tb-91" target="OFDSob3iJ7-6jmKI22tb-184" edge="1">
          <mxGeometry relative="1" as="geometry" />
        </mxCell>
        <mxCell id="OFDSob3iJ7-6jmKI22tb-91" value="Overview Page" style="shape=document;whiteSpace=wrap;html=1;boundedLbl=1;labelBackgroundColor=none;strokeColor=#FFFFFF;fontFamily=Times New Roman;fontSize=12;fontColor=#FFFFFF;fillColor=#00994D;" parent="1" vertex="1">
          <mxGeometry x="618.9999999999998" y="755" width="120" height="70" as="geometry" />
        </mxCell>
        <mxCell id="OFDSob3iJ7-6jmKI22tb-130" style="edgeStyle=orthogonalEdgeStyle;curved=1;rounded=0;orthogonalLoop=1;jettySize=auto;html=1;exitX=0.5;exitY=1;exitDx=0;exitDy=0;fontFamily=Times New Roman;fontSize=12;fontColor=#000000;" parent="1" source="OFDSob3iJ7-6jmKI22tb-117" target="OFDSob3iJ7-6jmKI22tb-118" edge="1">
          <mxGeometry relative="1" as="geometry" />
        </mxCell>
        <mxCell id="OFDSob3iJ7-6jmKI22tb-117" value="&lt;font face=&quot;Times New Roman&quot;&gt;Rekap Status &lt;br&gt;Desain RTA &lt;br&gt;setiap attribut &lt;br&gt;fitur di EGDB&lt;/font&gt;" style="shape=parallelogram;perimeter=parallelogramPerimeter;whiteSpace=wrap;html=1;fixedSize=1;strokeColor=#FFFFFF;fontFamily=Tahoma;fontColor=#FFFFFF;fillColor=#00994D;" parent="1" vertex="1">
          <mxGeometry x="1080.6599999999999" y="426" width="104" height="60" as="geometry" />
        </mxCell>
        <mxCell id="OFDSob3iJ7-6jmKI22tb-131" style="edgeStyle=orthogonalEdgeStyle;curved=1;rounded=0;orthogonalLoop=1;jettySize=auto;html=1;exitX=0.5;exitY=1;exitDx=0;exitDy=0;entryX=0.5;entryY=0;entryDx=0;entryDy=0;fontFamily=Times New Roman;fontSize=12;fontColor=#000000;" parent="1" source="OFDSob3iJ7-6jmKI22tb-118" edge="1">
          <mxGeometry relative="1" as="geometry">
            <mxPoint x="1128.6599999999999" y="625" as="targetPoint" />
          </mxGeometry>
        </mxCell>
        <mxCell id="OFDSob3iJ7-6jmKI22tb-118" value="&lt;font face=&quot;Times New Roman&quot;&gt;Pembuatan Grafik Status Desain tiap kriteria (Assistensi IPC, Asistensi PU,dst)&lt;/font&gt;" style="rounded=1;whiteSpace=wrap;html=1;strokeColor=#FFFFFF;fontFamily=Tahoma;fontColor=#FFFFFF;fillColor=#00994D;" parent="1" vertex="1">
          <mxGeometry x="1072.6599999999999" y="516" width="120.01" height="70" as="geometry" />
        </mxCell>
        <mxCell id="OFDSob3iJ7-6jmKI22tb-136" style="edgeStyle=orthogonalEdgeStyle;curved=1;rounded=0;orthogonalLoop=1;jettySize=auto;html=1;exitX=0.5;exitY=1;exitDx=0;exitDy=0;entryX=0.5;entryY=0;entryDx=0;entryDy=0;fontFamily=Times New Roman;fontSize=12;fontColor=#000000;" parent="1" source="OFDSob3iJ7-6jmKI22tb-120" target="OFDSob3iJ7-6jmKI22tb-32" edge="1">
          <mxGeometry relative="1" as="geometry" />
        </mxCell>
        <mxCell id="OFDSob3iJ7-6jmKI22tb-120" value="&lt;font face=&quot;Times New Roman&quot;&gt;Grafik Rekap &lt;br&gt;Status Desain &lt;br&gt;RTA&lt;/font&gt;" style="shape=parallelogram;perimeter=parallelogramPerimeter;whiteSpace=wrap;html=1;fixedSize=1;strokeColor=#FFFFFF;fontFamily=Tahoma;fontColor=#FFFFFF;fillColor=#00994D;" parent="1" vertex="1">
          <mxGeometry x="1077.73" y="629" width="104" height="60" as="geometry" />
        </mxCell>
        <mxCell id="OFDSob3iJ7-6jmKI22tb-133" style="edgeStyle=orthogonalEdgeStyle;curved=1;rounded=0;orthogonalLoop=1;jettySize=auto;html=1;exitX=0.5;exitY=1;exitDx=0;exitDy=0;entryX=0.5;entryY=0;entryDx=0;entryDy=0;fontFamily=Times New Roman;fontSize=12;fontColor=#000000;" parent="1" source="OFDSob3iJ7-6jmKI22tb-123" edge="1">
          <mxGeometry relative="1" as="geometry">
            <mxPoint x="1301.5100000000002" y="620" as="targetPoint" />
          </mxGeometry>
        </mxCell>
        <mxCell id="OFDSob3iJ7-6jmKI22tb-123" value="&lt;font face=&quot;Times New Roman&quot;&gt;Pembuatan List Status dan Progress Bangunan RTA&lt;/font&gt;" style="rounded=1;whiteSpace=wrap;html=1;strokeColor=#FFFFFF;fontFamily=Tahoma;fontColor=#FFFFFF;fillColor=#00994D;" parent="1" vertex="1">
          <mxGeometry x="1246.67" y="516" width="109.67" height="70" as="geometry" />
        </mxCell>
        <mxCell id="OFDSob3iJ7-6jmKI22tb-137" style="edgeStyle=orthogonalEdgeStyle;curved=1;rounded=0;orthogonalLoop=1;jettySize=auto;html=1;exitX=0.5;exitY=1;exitDx=0;exitDy=0;entryX=0.5;entryY=0;entryDx=0;entryDy=0;fontFamily=Times New Roman;fontSize=12;fontColor=#000000;" parent="1" source="OFDSob3iJ7-6jmKI22tb-125" target="OFDSob3iJ7-6jmKI22tb-32" edge="1">
          <mxGeometry relative="1" as="geometry" />
        </mxCell>
        <mxCell id="OFDSob3iJ7-6jmKI22tb-125" value="&lt;font face=&quot;Times New Roman&quot;&gt;Daftar RTA &lt;br&gt;Bangunan &lt;br&gt;Struktur Detail &lt;br&gt;dan Status &lt;br&gt;terakhirnya&lt;/font&gt;" style="shape=parallelogram;perimeter=parallelogramPerimeter;whiteSpace=wrap;html=1;fixedSize=1;strokeColor=#FFFFFF;fontFamily=Tahoma;fontColor=#FFFFFF;fillColor=#00994D;" parent="1" vertex="1">
          <mxGeometry x="1236.6799999999998" y="624" width="120" height="80" as="geometry" />
        </mxCell>
        <mxCell id="OFDSob3iJ7-6jmKI22tb-134" style="edgeStyle=orthogonalEdgeStyle;curved=1;rounded=0;orthogonalLoop=1;jettySize=auto;html=1;exitX=0.5;exitY=1;exitDx=0;exitDy=0;entryX=0.5;entryY=0;entryDx=0;entryDy=0;fontFamily=Times New Roman;fontSize=12;fontColor=#000000;" parent="1" source="OFDSob3iJ7-6jmKI22tb-127" target="OFDSob3iJ7-6jmKI22tb-128" edge="1">
          <mxGeometry relative="1" as="geometry" />
        </mxCell>
        <mxCell id="OFDSob3iJ7-6jmKI22tb-127" value="&lt;font face=&quot;Times New Roman&quot;&gt;Rekap Biaya &lt;br&gt;Konstruksi &lt;br&gt;tiap Pekerjaan (PPJT&lt;br&gt;, Kontrak, Basic Design, dst)&lt;/font&gt;" style="shape=parallelogram;perimeter=parallelogramPerimeter;whiteSpace=wrap;html=1;fixedSize=1;strokeColor=#FFFFFF;fontFamily=Tahoma;fontColor=#FFFFFF;fillColor=#00994D;" parent="1" vertex="1">
          <mxGeometry x="1416.83" y="396" width="130" height="90" as="geometry" />
        </mxCell>
        <mxCell id="OFDSob3iJ7-6jmKI22tb-135" style="edgeStyle=orthogonalEdgeStyle;curved=1;rounded=0;orthogonalLoop=1;jettySize=auto;html=1;exitX=0.5;exitY=1;exitDx=0;exitDy=0;entryX=0.5;entryY=0;entryDx=0;entryDy=0;fontFamily=Times New Roman;fontSize=12;fontColor=#000000;" parent="1" source="OFDSob3iJ7-6jmKI22tb-128" edge="1">
          <mxGeometry relative="1" as="geometry">
            <mxPoint x="1481.83" y="625" as="targetPoint" />
          </mxGeometry>
        </mxCell>
        <mxCell id="OFDSob3iJ7-6jmKI22tb-128" value="&lt;font face=&quot;Times New Roman&quot;&gt;Create Column Table&lt;/font&gt;" style="rounded=1;whiteSpace=wrap;html=1;strokeColor=#FFFFFF;fontFamily=Tahoma;fontColor=#FFFFFF;fillColor=#00994D;" parent="1" vertex="1">
          <mxGeometry x="1427" y="516" width="109.67" height="70" as="geometry" />
        </mxCell>
        <mxCell id="OFDSob3iJ7-6jmKI22tb-138" style="edgeStyle=orthogonalEdgeStyle;curved=1;rounded=0;orthogonalLoop=1;jettySize=auto;html=1;exitX=0.5;exitY=1;exitDx=0;exitDy=0;entryX=0.5;entryY=0;entryDx=0;entryDy=0;fontFamily=Times New Roman;fontSize=12;fontColor=#000000;" parent="1" source="OFDSob3iJ7-6jmKI22tb-129" target="OFDSob3iJ7-6jmKI22tb-32" edge="1">
          <mxGeometry relative="1" as="geometry" />
        </mxCell>
        <mxCell id="OFDSob3iJ7-6jmKI22tb-129" value="&lt;font face=&quot;Times New Roman&quot;&gt;Tabel Biaya &lt;br&gt;tiap Fase&lt;br&gt;&lt;/font&gt;" style="shape=parallelogram;perimeter=parallelogramPerimeter;whiteSpace=wrap;html=1;fixedSize=1;strokeColor=#FFFFFF;fontFamily=Tahoma;fontColor=#FFFFFF;fillColor=#00994D;" parent="1" vertex="1">
          <mxGeometry x="1425" y="629" width="104" height="60" as="geometry" />
        </mxCell>
        <mxCell id="OFDSob3iJ7-6jmKI22tb-144" style="edgeStyle=orthogonalEdgeStyle;curved=1;rounded=0;orthogonalLoop=1;jettySize=auto;html=1;exitX=0.5;exitY=1;exitDx=0;exitDy=0;entryX=0.5;entryY=0;entryDx=0;entryDy=0;fontFamily=Times New Roman;fontSize=12;fontColor=#000000;" parent="1" target="OFDSob3iJ7-6jmKI22tb-140" edge="1">
          <mxGeometry relative="1" as="geometry">
            <mxPoint x="1660.83" y="476" as="sourcePoint" />
          </mxGeometry>
        </mxCell>
        <mxCell id="OFDSob3iJ7-6jmKI22tb-145" style="edgeStyle=orthogonalEdgeStyle;curved=1;rounded=0;orthogonalLoop=1;jettySize=auto;html=1;exitX=0.5;exitY=1;exitDx=0;exitDy=0;entryX=0.534;entryY=0.089;entryDx=0;entryDy=0;entryPerimeter=0;fontFamily=Times New Roman;fontSize=12;fontColor=#000000;" parent="1" source="OFDSob3iJ7-6jmKI22tb-140" edge="1">
          <mxGeometry relative="1" as="geometry">
            <mxPoint x="1660.9199999999996" y="614.0100000000002" as="targetPoint" />
          </mxGeometry>
        </mxCell>
        <mxCell id="OFDSob3iJ7-6jmKI22tb-140" value="&lt;font face=&quot;Times New Roman&quot;&gt;Attach dokumen ke Feature Class&lt;/font&gt;" style="rounded=1;whiteSpace=wrap;html=1;strokeColor=#FFFFFF;fontFamily=Tahoma;fontColor=#FFFFFF;fillColor=#00994D;" parent="1" vertex="1">
          <mxGeometry x="1605.9899999999998" y="516" width="109.67" height="70" as="geometry" />
        </mxCell>
        <mxCell id="OFDSob3iJ7-6jmKI22tb-149" style="edgeStyle=orthogonalEdgeStyle;curved=1;rounded=0;orthogonalLoop=1;jettySize=auto;html=1;exitX=0.5;exitY=1;exitDx=0;exitDy=0;fontFamily=Times New Roman;fontSize=12;fontColor=#000000;" parent="1" source="OFDSob3iJ7-6jmKI22tb-146" target="OFDSob3iJ7-6jmKI22tb-147" edge="1">
          <mxGeometry relative="1" as="geometry" />
        </mxCell>
        <mxCell id="OFDSob3iJ7-6jmKI22tb-146" value="&lt;font face=&quot;Times New Roman&quot;&gt;Data Informasi Teknis Ruas&lt;/font&gt;" style="shape=parallelogram;perimeter=parallelogramPerimeter;whiteSpace=wrap;html=1;fixedSize=1;strokeColor=#FFFFFF;fontFamily=Tahoma;fontColor=#FFFFFF;fillColor=#00994D;" parent="1" vertex="1">
          <mxGeometry x="1761.83" y="401" width="104" height="60" as="geometry" />
        </mxCell>
        <mxCell id="OFDSob3iJ7-6jmKI22tb-150" style="edgeStyle=orthogonalEdgeStyle;curved=1;rounded=0;orthogonalLoop=1;jettySize=auto;html=1;exitX=0.5;exitY=1;exitDx=0;exitDy=0;fontFamily=Times New Roman;fontSize=12;fontColor=#000000;" parent="1" source="OFDSob3iJ7-6jmKI22tb-147" edge="1">
          <mxGeometry relative="1" as="geometry">
            <mxPoint x="1813.833333333334" y="616" as="targetPoint" />
          </mxGeometry>
        </mxCell>
        <mxCell id="OFDSob3iJ7-6jmKI22tb-147" value="&lt;font face=&quot;Times New Roman&quot;&gt;Create Table&lt;/font&gt;" style="rounded=1;whiteSpace=wrap;html=1;strokeColor=#FFFFFF;fontFamily=Tahoma;fontColor=#FFFFFF;fillColor=#00994D;" parent="1" vertex="1">
          <mxGeometry x="1758.9899999999998" y="516" width="109.67" height="70" as="geometry" />
        </mxCell>
        <mxCell id="Z-h5pSy1b9NhvBK70-rD-34" style="edgeStyle=orthogonalEdgeStyle;curved=1;rounded=0;orthogonalLoop=1;jettySize=auto;html=1;exitX=0.5;exitY=1;exitDx=0;exitDy=0;fontSize=9;" parent="1" source="OFDSob3iJ7-6jmKI22tb-148" target="OFDSob3iJ7-6jmKI22tb-33" edge="1">
          <mxGeometry relative="1" as="geometry" />
        </mxCell>
        <mxCell id="OFDSob3iJ7-6jmKI22tb-148" value="&lt;font face=&quot;Times New Roman&quot;&gt;Tabel Informasi Teknik Ruas&lt;/font&gt;" style="shape=parallelogram;perimeter=parallelogramPerimeter;whiteSpace=wrap;html=1;fixedSize=1;strokeColor=#FFFFFF;fontFamily=Tahoma;fontColor=#FFFFFF;fillColor=#00994D;" parent="1" vertex="1">
          <mxGeometry x="1757" y="620" width="104" height="60" as="geometry" />
        </mxCell>
        <mxCell id="OFDSob3iJ7-6jmKI22tb-163" value="&lt;font face=&quot;Times New Roman&quot; color=&quot;#ffffff&quot;&gt;Selesai&lt;/font&gt;" style="strokeWidth=2;html=1;shape=mxgraph.flowchart.start_1;whiteSpace=wrap;fontFamily=Tahoma;fillColor=#00994D;strokeColor=#FFFFFF;" parent="1" vertex="1">
          <mxGeometry x="1003.8399999999997" y="1150" width="100" height="60" as="geometry" />
        </mxCell>
        <mxCell id="OFDSob3iJ7-6jmKI22tb-192" style="edgeStyle=orthogonalEdgeStyle;curved=1;rounded=0;orthogonalLoop=1;jettySize=auto;html=1;exitX=0.5;exitY=1;exitDx=0;exitDy=0;entryX=0.5;entryY=0;entryDx=0;entryDy=0;fontFamily=Times New Roman;fontSize=11;fontColor=#000000;" parent="1" source="OFDSob3iJ7-6jmKI22tb-180" target="OFDSob3iJ7-6jmKI22tb-183" edge="1">
          <mxGeometry relative="1" as="geometry" />
        </mxCell>
        <mxCell id="OFDSob3iJ7-6jmKI22tb-180" value="&lt;font face=&quot;Times New Roman&quot;&gt;Data BIM &lt;br&gt;Struktur&lt;/font&gt;" style="shape=parallelogram;perimeter=parallelogramPerimeter;whiteSpace=wrap;html=1;fixedSize=1;strokeColor=#FFFFFF;fontFamily=Tahoma;fontColor=#FFFFFF;fillColor=#00994D;" parent="1" vertex="1">
          <mxGeometry x="1913.83" y="416" width="104" height="60" as="geometry" />
        </mxCell>
        <mxCell id="OFDSob3iJ7-6jmKI22tb-191" style="edgeStyle=orthogonalEdgeStyle;curved=1;rounded=0;orthogonalLoop=1;jettySize=auto;html=1;exitX=0.5;exitY=1;exitDx=0;exitDy=0;entryX=0.5;entryY=0;entryDx=0;entryDy=0;fontFamily=Times New Roman;fontSize=11;fontColor=#000000;" parent="1" source="OFDSob3iJ7-6jmKI22tb-181" target="OFDSob3iJ7-6jmKI22tb-183" edge="1">
          <mxGeometry relative="1" as="geometry" />
        </mxCell>
        <mxCell id="OFDSob3iJ7-6jmKI22tb-181" value="&lt;font face=&quot;Times New Roman&quot;&gt;Data BIM &lt;br&gt;Mainroad&lt;/font&gt;" style="shape=parallelogram;perimeter=parallelogramPerimeter;whiteSpace=wrap;html=1;fixedSize=1;strokeColor=#FFFFFF;fontFamily=Tahoma;fontColor=#FFFFFF;fillColor=#00994D;" parent="1" vertex="1">
          <mxGeometry x="2033.83" y="416" width="104" height="60" as="geometry" />
        </mxCell>
        <mxCell id="OFDSob3iJ7-6jmKI22tb-193" style="edgeStyle=orthogonalEdgeStyle;curved=1;rounded=0;orthogonalLoop=1;jettySize=auto;html=1;exitX=0.5;exitY=1;exitDx=0;exitDy=0;fontFamily=Times New Roman;fontSize=11;fontColor=#000000;" parent="1" source="OFDSob3iJ7-6jmKI22tb-182" target="OFDSob3iJ7-6jmKI22tb-183" edge="1">
          <mxGeometry relative="1" as="geometry" />
        </mxCell>
        <mxCell id="OFDSob3iJ7-6jmKI22tb-182" value="&lt;font face=&quot;Times New Roman&quot;&gt;Raster Foto &lt;br&gt;Udara&lt;/font&gt;" style="shape=parallelogram;perimeter=parallelogramPerimeter;whiteSpace=wrap;html=1;fixedSize=1;strokeColor=#FFFFFF;fontFamily=Tahoma;fontColor=#FFFFFF;fillColor=#00994D;" parent="1" vertex="1">
          <mxGeometry x="2163.83" y="416" width="104" height="60" as="geometry" />
        </mxCell>
        <mxCell id="OFDSob3iJ7-6jmKI22tb-194" style="edgeStyle=orthogonalEdgeStyle;curved=1;rounded=0;orthogonalLoop=1;jettySize=auto;html=1;exitX=0.5;exitY=1;exitDx=0;exitDy=0;entryX=0.495;entryY=0.095;entryDx=0;entryDy=0;entryPerimeter=0;fontFamily=Times New Roman;fontSize=11;fontColor=#000000;" parent="1" source="OFDSob3iJ7-6jmKI22tb-183" edge="1">
          <mxGeometry relative="1" as="geometry">
            <mxPoint x="2084.6549999999997" y="644.5500000000002" as="targetPoint" />
          </mxGeometry>
        </mxCell>
        <mxCell id="OFDSob3iJ7-6jmKI22tb-183" value="&lt;font face=&quot;Times New Roman&quot;&gt;Create 3D Viewer&lt;/font&gt;" style="rounded=1;whiteSpace=wrap;html=1;strokeColor=#FFFFFF;fontFamily=Tahoma;fontColor=#FFFFFF;fillColor=#00994D;" parent="1" vertex="1">
          <mxGeometry x="2030.9899999999998" y="535" width="109.67" height="70" as="geometry" />
        </mxCell>
        <mxCell id="a0GXZD7oJbDEpGSqutC4-4" value="" style="edgeStyle=orthogonalEdgeStyle;curved=1;rounded=0;orthogonalLoop=1;jettySize=auto;html=1;fontSize=9;" parent="1" source="OFDSob3iJ7-6jmKI22tb-184" target="OFDSob3iJ7-6jmKI22tb-185" edge="1">
          <mxGeometry relative="1" as="geometry" />
        </mxCell>
        <mxCell id="OFDSob3iJ7-6jmKI22tb-184" value="&lt;font face=&quot;Times New Roman&quot;&gt;Create Experience Builder&lt;/font&gt;" style="rounded=1;whiteSpace=wrap;html=1;strokeColor=#FFFFFF;fontFamily=Tahoma;fontColor=#FFFFFF;fillColor=#00994D;" parent="1" vertex="1">
          <mxGeometry x="999" y="930" width="109.67" height="70" as="geometry" />
        </mxCell>
        <mxCell id="a0GXZD7oJbDEpGSqutC4-3" value="" style="edgeStyle=orthogonalEdgeStyle;curved=1;rounded=0;orthogonalLoop=1;jettySize=auto;html=1;fontSize=9;" parent="1" source="OFDSob3iJ7-6jmKI22tb-185" target="OFDSob3iJ7-6jmKI22tb-163" edge="1">
          <mxGeometry relative="1" as="geometry" />
        </mxCell>
        <mxCell id="OFDSob3iJ7-6jmKI22tb-185" value="Web Dashboard Experience Builder" style="ellipse;shape=cloud;whiteSpace=wrap;html=1;labelBackgroundColor=none;strokeColor=#FFFFFF;fontFamily=Times New Roman;fontSize=12;fontColor=#FFFFFF;fillColor=#00994D;" parent="1" vertex="1">
          <mxGeometry x="986.3400000000001" y="1020" width="135" height="90" as="geometry" />
        </mxCell>
        <mxCell id="OFDSob3iJ7-6jmKI22tb-195" style="edgeStyle=orthogonalEdgeStyle;curved=1;rounded=0;orthogonalLoop=1;jettySize=auto;html=1;exitX=0.55;exitY=0.95;exitDx=0;exitDy=0;exitPerimeter=0;entryX=0.5;entryY=0;entryDx=0;entryDy=0;fontFamily=Times New Roman;fontSize=11;fontColor=#000000;" parent="1" source="OFDSob3iJ7-6jmKI22tb-188" target="OFDSob3iJ7-6jmKI22tb-34" edge="1">
          <mxGeometry relative="1" as="geometry" />
        </mxCell>
        <mxCell id="OFDSob3iJ7-6jmKI22tb-188" value="Webscene 3D &lt;br&gt;Viewer" style="ellipse;shape=cloud;whiteSpace=wrap;html=1;labelBackgroundColor=none;strokeColor=#FFFFFF;fontFamily=Times New Roman;fontSize=12;fontColor=#FFFFFF;fillColor=#00994D;" parent="1" vertex="1">
          <mxGeometry x="2013" y="640" width="135" height="90" as="geometry" />
        </mxCell>
        <mxCell id="Z-h5pSy1b9NhvBK70-rD-19" style="edgeStyle=orthogonalEdgeStyle;curved=1;rounded=0;orthogonalLoop=1;jettySize=auto;html=1;exitX=0.5;exitY=1;exitDx=0;exitDy=0;" parent="1" source="Z-h5pSy1b9NhvBK70-rD-17" edge="1">
          <mxGeometry relative="1" as="geometry">
            <mxPoint x="151.32999999999947" y="601" as="targetPoint" />
          </mxGeometry>
        </mxCell>
        <mxCell id="Z-h5pSy1b9NhvBK70-rD-17" value="&lt;font face=&quot;Times New Roman&quot;&gt;Ekstrak Fitur Centerline&lt;/font&gt;" style="rounded=1;whiteSpace=wrap;html=1;strokeColor=#FFFFFF;fontFamily=Tahoma;fontColor=#FFFFFF;fillColor=#00994D;" parent="1" vertex="1">
          <mxGeometry x="68.99999999999977" y="421" width="109.67" height="70" as="geometry" />
        </mxCell>
        <mxCell id="Z-h5pSy1b9NhvBK70-rD-31" style="edgeStyle=orthogonalEdgeStyle;curved=1;rounded=0;orthogonalLoop=1;jettySize=auto;html=1;exitX=1;exitY=0.5;exitDx=0;exitDy=0;exitPerimeter=0;entryX=0;entryY=0.5;entryDx=0;entryDy=0;fontSize=9;" parent="1" source="Z-h5pSy1b9NhvBK70-rD-27" target="Z-h5pSy1b9NhvBK70-rD-29" edge="1">
          <mxGeometry relative="1" as="geometry">
            <Array as="points">
              <mxPoint x="1379" y="354" />
              <mxPoint x="1379" y="524" />
              <mxPoint x="1409" y="524" />
              <mxPoint x="1409" y="716" />
              <mxPoint x="1509" y="716" />
              <mxPoint x="1509" y="730" />
              <mxPoint x="1569" y="730" />
              <mxPoint x="1569" y="654" />
            </Array>
          </mxGeometry>
        </mxCell>
        <mxCell id="a0GXZD7oJbDEpGSqutC4-7" style="edgeStyle=orthogonalEdgeStyle;curved=1;rounded=0;orthogonalLoop=1;jettySize=auto;html=1;exitX=1;exitY=0.5;exitDx=0;exitDy=0;exitPerimeter=0;entryX=0.5;entryY=0;entryDx=0;entryDy=0;fontSize=9;" parent="1" source="Z-h5pSy1b9NhvBK70-rD-27" target="OFDSob3iJ7-6jmKI22tb-123" edge="1">
          <mxGeometry relative="1" as="geometry" />
        </mxCell>
        <mxCell id="hgQZstdFSJTdCkMLXJqS-1" style="edgeStyle=orthogonalEdgeStyle;rounded=0;orthogonalLoop=1;jettySize=auto;html=1;exitX=0.5;exitY=1;exitDx=0;exitDy=0;exitPerimeter=0;entryX=0.5;entryY=0;entryDx=0;entryDy=0;" edge="1" parent="1" source="Z-h5pSy1b9NhvBK70-rD-27" target="OFDSob3iJ7-6jmKI22tb-117">
          <mxGeometry relative="1" as="geometry" />
        </mxCell>
        <mxCell id="hgQZstdFSJTdCkMLXJqS-6" style="edgeStyle=orthogonalEdgeStyle;curved=1;rounded=0;orthogonalLoop=1;jettySize=auto;html=1;exitX=0;exitY=0.5;exitDx=0;exitDy=0;exitPerimeter=0;entryX=0.5;entryY=0;entryDx=0;entryDy=0;" edge="1" parent="1" source="Z-h5pSy1b9NhvBK70-rD-27" target="hgQZstdFSJTdCkMLXJqS-2">
          <mxGeometry relative="1" as="geometry" />
        </mxCell>
        <mxCell id="hgQZstdFSJTdCkMLXJqS-7" style="edgeStyle=orthogonalEdgeStyle;curved=1;rounded=0;orthogonalLoop=1;jettySize=auto;html=1;exitX=0;exitY=0.5;exitDx=0;exitDy=0;exitPerimeter=0;entryX=0.5;entryY=0;entryDx=0;entryDy=0;" edge="1" parent="1" source="Z-h5pSy1b9NhvBK70-rD-27" target="hgQZstdFSJTdCkMLXJqS-3">
          <mxGeometry relative="1" as="geometry" />
        </mxCell>
        <mxCell id="hgQZstdFSJTdCkMLXJqS-8" style="edgeStyle=orthogonalEdgeStyle;curved=1;rounded=0;orthogonalLoop=1;jettySize=auto;html=1;exitX=0;exitY=0.5;exitDx=0;exitDy=0;exitPerimeter=0;entryX=0.5;entryY=0;entryDx=0;entryDy=0;" edge="1" parent="1" source="Z-h5pSy1b9NhvBK70-rD-27" target="Z-h5pSy1b9NhvBK70-rD-17">
          <mxGeometry relative="1" as="geometry">
            <Array as="points">
              <mxPoint x="1077" y="280" />
              <mxPoint x="124" y="280" />
            </Array>
          </mxGeometry>
        </mxCell>
        <mxCell id="Z-h5pSy1b9NhvBK70-rD-27" value="&lt;font color=&quot;#ffffff&quot;&gt;&lt;br&gt;Enterprise Geodatabase &lt;br&gt;Tiap Ruas (.egdb)&lt;/font&gt;" style="strokeWidth=2;html=1;shape=mxgraph.flowchart.database;whiteSpace=wrap;strokeColor=#FFFFFF;fontFamily=Times New Roman;fontSize=12;fontColor=#000000;fillColor=#00994D;align=center;" parent="1" vertex="1">
          <mxGeometry x="1077.1899999999996" y="260" width="110.94" height="85" as="geometry" />
        </mxCell>
        <mxCell id="Z-h5pSy1b9NhvBK70-rD-28" value="&lt;font face=&quot;Times New Roman&quot;&gt;Dokumen Perubahan/Persetujuan Trase (Surat, BA, Notulen, dst)&lt;/font&gt;" style="shape=parallelogram;perimeter=parallelogramPerimeter;whiteSpace=wrap;html=1;fixedSize=1;strokeColor=#FFFFFF;fontFamily=Tahoma;fontColor=#FFFFFF;fillColor=#00994D;" parent="1" vertex="1">
          <mxGeometry x="1595.8199999999997" y="396" width="130" height="90" as="geometry" />
        </mxCell>
        <mxCell id="Z-h5pSy1b9NhvBK70-rD-33" value="" style="edgeStyle=orthogonalEdgeStyle;curved=1;rounded=0;orthogonalLoop=1;jettySize=auto;html=1;fontSize=9;" parent="1" source="Z-h5pSy1b9NhvBK70-rD-29" target="Z-h5pSy1b9NhvBK70-rD-32" edge="1">
          <mxGeometry relative="1" as="geometry" />
        </mxCell>
        <mxCell id="Z-h5pSy1b9NhvBK70-rD-29" value="&lt;font face=&quot;Times New Roman&quot;&gt;Add EGDB Desain Trase ke Webmap&lt;/font&gt;" style="rounded=1;whiteSpace=wrap;html=1;strokeColor=#FFFFFF;fontFamily=Tahoma;fontColor=#FFFFFF;fillColor=#00994D;" parent="1" vertex="1">
          <mxGeometry x="1601.1599999999999" y="619" width="109.67" height="70" as="geometry" />
        </mxCell>
        <mxCell id="Z-h5pSy1b9NhvBK70-rD-35" style="edgeStyle=orthogonalEdgeStyle;curved=1;rounded=0;orthogonalLoop=1;jettySize=auto;html=1;entryX=0.5;entryY=0;entryDx=0;entryDy=0;fontSize=9;" parent="1" source="Z-h5pSy1b9NhvBK70-rD-32" target="OFDSob3iJ7-6jmKI22tb-33" edge="1">
          <mxGeometry relative="1" as="geometry" />
        </mxCell>
        <mxCell id="Z-h5pSy1b9NhvBK70-rD-32" value="&lt;font face=&quot;Times New Roman&quot;&gt;Pembuatan ArcGIS Instant App/Web App&lt;/font&gt;" style="rounded=1;whiteSpace=wrap;html=1;strokeColor=#FFFFFF;fontFamily=Tahoma;fontColor=#FFFFFF;fillColor=#00994D;" parent="1" vertex="1">
          <mxGeometry x="1601.1599999999999" y="720" width="109.67" height="70" as="geometry" />
        </mxCell>
        <mxCell id="hgQZstdFSJTdCkMLXJqS-2" value="&lt;font face=&quot;Times New Roman&quot;&gt;Centerline &lt;br&gt;Mainroad RTA&lt;br&gt;&amp;nbsp;(.shp)&lt;/font&gt;" style="shape=parallelogram;perimeter=parallelogramPerimeter;whiteSpace=wrap;html=1;fixedSize=1;strokeColor=#FFFFFF;fontFamily=Tahoma;fontColor=#FFFFFF;fillColor=#00994D;" vertex="1" parent="1">
          <mxGeometry x="750.0000000000001" y="332.5" width="104" height="60" as="geometry" />
        </mxCell>
        <mxCell id="hgQZstdFSJTdCkMLXJqS-3" value="&lt;font face=&quot;Times New Roman&quot;&gt;Centerline &lt;br&gt;Mainroad BD&lt;br&gt;&amp;nbsp;(.shp)&lt;/font&gt;" style="shape=parallelogram;perimeter=parallelogramPerimeter;whiteSpace=wrap;html=1;fixedSize=1;strokeColor=#FFFFFF;fontFamily=Tahoma;fontColor=#FFFFFF;fillColor=#00994D;" vertex="1" parent="1">
          <mxGeometry x="420.0000000000001" y="332.5" width="104" height="60" as="geometry" />
        </mxCell>
        <mxCell id="hgQZstdFSJTdCkMLXJqS-9" value="&lt;font face=&quot;Times New Roman&quot;&gt;Query View&lt;/font&gt;" style="rounded=1;whiteSpace=wrap;html=1;strokeColor=#FFFFFF;fontFamily=Tahoma;fontColor=#FFFFFF;fillColor=#00994D;" vertex="1" parent="1">
          <mxGeometry x="790" y="870" width="109.67" height="70" as="geometry" />
        </mxCell>
      </root>
    </mxGraphModel>
  </diagram>
</mxfile>
